{
  "accessors": [
    {
      "bufferView": 2,
      "componentType": 5126,
      "count": 24,
      "max": [
        1.100000023841858,
        2.0,
        0.016800004988908768
      ],
      "min": [
        -1.100000023841858,
        -2.0,
        -0.016800004988908768
      ],
      "type": "VEC3"
    },
    {
      "bufferView": 2,
      "byteOffset": 288,
      "componentType": 5126,
      "count": 24,
      "max": [
        1.0,
        1.0,
        1.0
      ],
      "min": [
        -1.0,
        -1.0,
        -1.0
      ],
      "type": "VEC3"
    },
    {
      "bufferView": 1,
      "componentType": 5126,
      "count": 24,
      "max": [
        0.9975694417953491,
        0.8399243950843811
      ],
      "min": [
        -0.002430528402328491,
        0.16007566452026367
      ],
      "type": "VEC2"
    },
    {
      "bufferView": 0,
      "componentType": 5125,
      "count": 36,
      "type": "SCALAR"
    },
    {
      "bufferView": 2,
      "byteOffset": 576,
      "componentType": 5126,
      "count": 520,
      "max": [
        0.6500000953674316,
        1.5,
        0.10000002384185791
      ],
      "min": [
        -0.6499999761581421,
        -1.5,
        -0.6000000238418579
      ],
      "type": "VEC3"
    },
    {
      "bufferView": 2,
      "byteOffset": 6816,
      "componentType": 5126,
      "count": 520,
      "max": [
        1.0,
        1.0,
        1.0
      ],
      "min": [
        -1.0,
        -1.0,
        -1.0
      ],
      "type": "VEC3"
    },
    {
      "bufferView": 1,
      "byteOffset": 192,
      "componentType": 5126,
      "count": 520,
      "max": [
        1.0,
        1.0
      ],
      "min": [
        0.0,
        0.01000000536441803
      ],
      "type": "VEC2"
    },
    {
      "bufferView": 0,
      "byteOffset": 144,
      "componentType": 5125,
      "count": 1488,
      "type": "SCALAR"
    },
    {
      "bufferView": 2,
      "byteOffset": 13056,
      "componentType": 5126,
      "count": 24,
      "max": [
        1.0,
        2.0,
        0.016800004988908768
      ],
      "min": [
        -1.0,
        -2.0,
        -0.016800004988908768
      ],
      "type": "VEC3"
    },
    {
      "bufferView": 2,
      "byteOffset": 13344,
      "componentType": 5126,
      "count": 24,
      "max": [
        1.0,
        1.0,
        1.0
      ],
      "min": [
        -1.0,
        -1.0,
        -1.0
      ],
      "type": "VEC3"
    },
    {
      "bufferView": 1,
      "byteOffset": 4352,
      "componentType": 5126,
      "count": 24,
      "max": [
        0.9973264932632446,
        0.8523983955383301
      ],
      "min": [
        -0.0026735663414001465,
        0.14760160446166992
      ],
      "type": "VEC2"
    },
    {
      "bufferView": 0,
      "byteOffset": 6096,
      "componentType": 5125,
      "count": 36,
      "type": "SCALAR"
    },
    {
      "bufferView": 2,
      "byteOffset": 13632,
      "componentType": 5126,
      "count": 72,
      "max": [
        0.8600000739097595,
        0.20383000373840332,
        0.030000030994415283
      ],
      "min": [
        -0.8600001335144043,
        -0.20383000373840332,
        -0.8698868751525879
      ],
      "type": "VEC3"
    },
    {
      "bufferView": 2,
      "byteOffset": 14496,
      "componentType": 5126,
      "count": 72,
      "max": [
        1.0,
        1.0,
        1.0
      ],
      "min": [
        -1.0,
        -1.0,
        -1.0
      ],
      "type": "VEC3"
    },
    {
      "bufferView": 1,
      "byteOffset": 4544,
      "componentType": 5126,
      "count": 72,
      "max": [
        0.875,
        1.0
      ],
      "min": [
        0.125,
        0.0
      ],
      "type": "VEC2"
    },
    {
      "bufferView": 0,
      "byteOffset": 6240,
      "componentType": 5125,
      "count": 108,
      "type": "SCALAR"
    },
    {
      "bufferView": 2,
      "byteOffset": 15360,
      "componentType": 5126,
      "count": 72,
      "max": [
        0.8600000739097595,
        0.20383000373840332,
        0.030000030994415283
      ],
      "min": [
        -0.8600001335144043,
        -0.20383000373840332,
        -0.8698868751525879
      ],
      "type": "VEC3"
    },
    {
      "bufferView": 2,
      "byteOffset": 16224,
      "componentType": 5126,
      "count": 72,
      "max": [
        1.0,
        1.0,
        1.0
      ],
      "min": [
        -1.0,
        -1.0,
        -1.0
      ],
      "type": "VEC3"
    },
    {
      "bufferView": 1,
      "byteOffset": 5120,
      "componentType": 5126,
      "count": 72,
      "max": [
        0.875,
        1.0
      ],
      "min": [
        0.125,
        0.0
      ],
      "type": "VEC2"
    },
    {
      "bufferView": 0,
      "byteOffset": 6672,
      "componentType": 5125,
      "count": 108,
      "type": "SCALAR"
    }
  ],
  "asset": {
    "extras": {
      "author": "NoobiePie (https://sketchfab.com/NoobiePie)",
      "license": "CC-BY-4.0 (http://creativecommons.org/licenses/by/4.0/)",
      "source": "https://sketchfab.com/3d-models/low-poly-glass-table-6acac6d9201e448b92dff859b6f63aad",
      "title": "Low-Poly Glass Table"
    },
    "generator": "Sketchfab-12.66.0",
    "version": "2.0"
  },
  "bufferViews": [
    {
      "buffer": 0,
      "byteLength": 7104,
      "name": "floatBufferViews",
      "target": 34963
    },
    {
      "buffer": 0,
      "byteLength": 5696,
      "byteOffset": 7104,
      "byteStride": 8,
      "name": "floatBufferViews",
      "target": 34962
    },
    {
      "buffer": 0,
      "byteLength": 17088,
      "byteOffset": 12800,
      "byteStride": 12,
      "name": "floatBufferViews",
      "target": 34962
    }
  ],
  "buffers": [
    {
      "byteLength": 29888,
      "uri": "scene.bin"
    }
  ],
  "extensionsUsed": [
    "KHR_materials_transmission"
  ],
  "materials": [
    {
      "alphaMode": "BLEND",
      "doubleSided": true,
      "extensions": {
        "KHR_materials_transmission": {
          "transmissionFactor": 0.761163197927877
        }
      },
      "name": "Glass",
      "pbrMetallicRoughness": {
        "baseColorFactor": [
          0.0,
          0.0,
          0.0,
          0.25
        ],
        "roughnessFactor": 0.0
      }
    },
    {
      "doubleSided": true,
      "name": "Pillars",
      "pbrMetallicRoughness": {
        "baseColorFactor": [
          0.8,
          0.8,
          0.8,
          1.0
        ],
        "metallicFactor": 0.950217062181931,
        "roughnessFactor": 0.22059628258212793
      }
    },
    {
      "doubleSided": true,
      "name": "Legs",
      "pbrMetallicRoughness": {
        "baseColorFactor": [
          0.00932775,
          0.00932775,
          0.00932775,
          1.0
        ],
        "metallicFactor": 0.0,
        "roughnessFactor": 0.9973994594396199
      }
    }
  ],
  "meshes": [
    {
      "name": "Glass_Glass_0",
      "primitives": [
        {
          "attributes": {
            "NORMAL": 1,
            "POSITION": 0,
            "TEXCOORD_0": 2
          },
          "indices": 3,
          "material": 0,
          "mode": 4
        }
      ]
    },
    {
      "name": "Pillars_Pillars_0",
      "primitives": [
        {
          "attributes": {
            "NORMAL": 5,
            "POSITION": 4,
            "TEXCOORD_0": 6
          },
          "indices": 7,
          "material": 1,
          "mode": 4
        }
      ]
    },
    {
      "name": "SecondGlass_Glass_0",
      "primitives": [
        {
          "attributes": {
            "NORMAL": 9,
            "POSITION": 8,
            "TEXCOORD_0": 10
          },
          "indices": 11,
          "material": 0,
          "mode": 4
        }
      ]
    },
    {
      "name": "Leg_2_Legs_0",
      "primitives": [
        {
          "attributes": {
            "NORMAL": 13,
            "POSITION": 12,
            "TEXCOORD_0": 14
          },
          "indices": 15,
          "material": 2,
          "mode": 4
        }
      ]
    },
    {
      "name": "Leg_1_Legs_0",
      "primitives": [
        {
          "attributes": {
            "NORMAL": 17,
            "POSITION": 16,
            "TEXCOORD_0": 18
          },
          "indices": 19,
          "material": 2,
          "mode": 4
        }
      ]
    }
  ],
  "nodes": [
    {
      "children": [
        1
      ],
      "matrix": [
        1.0,
        0.0,
        0.0,
        0.0,
        0.0,
        2.220446049250313e-16,
        -1.0,
        0.0,
        0.0,
        1.0,
        2.220446049250313e-16,
        0.0,
        0.0,
        0.0,
        0.0,
        1.0
      ],
      "name": "Sketchfab_model"
    },
    {
      "children": [
        2
      ],
      "matrix": [
        0.009999999776482582,
        0.0,
        0.0,
        0.0,
        0.0,
        0.0,
        0.009999999776482582,
        0.0,
        0.0,
        -0.009999999776482582,
        0.0,
        0.0,
        0.0,
        0.0,
        0.0,
        1.0
      ],
      "name": "a168944342184d49afb9261fe5280670.fbx"
    },
    {
      "children": [
        3
      ],
      "name": "RootNode"
    },
    {
      "children": [
        4,
        5,
        7,
        9,
        11
      ],
      "matrix": [
        90.0,
        0.0,
        0.0,
        0.0,
        0.0,
        -1.4662861145264827e-05,
        -89.9999999999988,
        0.0,
        0.0,
        89.9999999999988,
        -1.4662861145264827e-05,
        0.0,
        0.0,
        123.70001220703125,
        0.0,
        1.0
      ],
      "name": "Glass"
    },
    {
      "mesh": 0,
      "name": "Glass_Glass_0"
    },
    {
      "children": [
        6
      ],
      "matrix": [
        1.111111044883728,
        0.0,
        0.0,
        0.0,
        0.0,
        1.111111044883728,
        -2.646977960169688e-23,
        0.0,
        0.0,
        2.646977960169688e-23,
        1.111111044883728,
        0.0,
        0.0,
        0.0,
        -0.12999999523162842,
        1.0
      ],
      "name": "Pillars"
    },
    {
      "mesh": 1,
      "name": "Pillars_Pillars_0"
    },
    {
      "children": [
        8
      ],
      "matrix": [
        0.8888888359069824,
        0.0,
        0.0,
        0.0,
        0.0,
        0.8888888359069824,
        0.0,
        0.0,
        0.0,
        0.0,
        1.111111044883728,
        0.0,
        0.0,
        2.6469779601696886e-23,
        -0.8111111521720886,
        1.0
      ],
      "name": "SecondGlass"
    },
    {
      "mesh": 2,
      "name": "SecondGlass_Glass_0"
    },
    {
      "children": [
        10
      ],
      "matrix": [
        1.111111044883728,
        0.0,
        0.0,
        0.0,
        0.0,
        1.111111044883728,
        -2.646977960169688e-23,
        0.0,
        0.0,
        2.646977960169688e-23,
        1.111111044883728,
        0.0,
        6.622737913630772e-08,
        -1.5555554628372192,
        -0.4077776074409485,
        1.0
      ],
      "name": "Leg_2"
    },
    {
      "mesh": 3,
      "name": "Leg_2_Legs_0"
    },
    {
      "children": [
        12
      ],
      "matrix": [
        1.111111044883728,
        0.0,
        0.0,
        0.0,
        0.0,
        1.111111044883728,
        -2.646977960169688e-23,
        0.0,
        0.0,
        2.646977960169688e-23,
        1.111111044883728,
        0.0,
        6.622737913630772e-08,
        1.5555554628372192,
        -0.4077776074409485,
        1.0
      ],
      "name": "Leg_1"
    },
    {
      "mesh": 4,
      "name": "Leg_1_Legs_0"
    }
  ],
  "scene": 0,
  "scenes": [
    {
      "name": "Sketchfab_Scene",
      "nodes": [
        0
      ]
    }
  ]
}
